{
 "cells": [
  {
   "cell_type": "code",
   "execution_count": 7,
   "metadata": {},
   "outputs": [],
   "source": [
    "import os"
   ]
  },
  {
   "cell_type": "code",
   "execution_count": 19,
   "metadata": {},
   "outputs": [],
   "source": [
    "def slice_video(filename, start_range = 0):\n",
    "    #cuts file into 20 equal sections\n",
    "    stop_range = start_range + 20\n",
    "    movie_name = filename.split(\".\")[0]\n",
    "    file_type = \".\" + filename.split(\".\")[1]\n",
    "    os.mkdir(movie_name)\n",
    "    s = os.popen('ffprobe -v error -select_streams v:0 -show_entries stream=duration -of default=noprint_wrappers=1:nokey=1 {}'.format(filename))\n",
    "    seconds = float(s.read().split()[0])\n",
    "    duration = seconds/20\n",
    "    t = 0\n",
    "    for i in range(start_range, stop_range):\n",
    "        print(t, t + duration)\n",
    "        command = 'ffmpeg -i {} -ss {} -t {} -c copy {}/{}_section{}{}'.format(filename, t, duration, movie_name, movie_name, i, file_type)\n",
    "        output = os.popen(command)\n",
    "        print(output.read())\n",
    "        t+= duration"
   ]
  },
  {
   "cell_type": "code",
   "execution_count": 15,
   "metadata": {},
   "outputs": [],
   "source": [
    "def print_video(filename, start_range = 0):\n",
    "    #cuts file into 20 equal sections\n",
    "    stop_range = start_range + 20\n",
    "    movie_name = filename.split(\".\")[0]\n",
    "    file_type = \".\" + filename.split(\".\")[1]\n",
    "    os.mkdir(movie_name)\n",
    "    print(stop_range)\n",
    "    print(movie_name)\n",
    "    print(file_type)\n",
    "    # s = os.popen('ffprobe -v error -select_streams v:0 -show_entries stream=duration -of default=noprint_wrappers=1:nokey=1 {}'.format(filename))\n",
    "    # seconds = float(s.read().split()[0])\n",
    "    # duration = seconds/20\n",
    "    # t = 0\n",
    "    # for i in range(start_range, stop_range):\n",
    "    #     print(t, t + duration)\n",
    "    #     command = 'ffmpeg -i {} -ss {} -t {} -c copy {}/{}_section{}{}'.format(filename, t, duration, movie_name, movie_name, i, file_type)\n",
    "    #     output = os.popen(command)\n",
    "    #     print(output.read())\n",
    "    #     t+= duration"
   ]
  },
  {
   "cell_type": "code",
   "execution_count": 16,
   "metadata": {},
   "outputs": [
    {
     "name": "stdout",
     "output_type": "stream",
     "text": [
      "20\n",
      "Steamboat_Willie\n",
      ".mp4\n"
     ]
    }
   ],
   "source": [
    "print_video(\"Steamboat_Willie.mp4\")"
   ]
  },
  {
   "cell_type": "code",
   "execution_count": 20,
   "metadata": {},
   "outputs": [
    {
     "name": "stdout",
     "output_type": "stream",
     "text": [
      "0 446.70459165\n",
      "\n",
      "446.70459165 893.4091833\n"
     ]
    },
    {
     "name": "stderr",
     "output_type": "stream",
     "text": [
      "ffmpeg version 4.1.4 Copyright (c) 2000-2019 the FFmpeg developers\n",
      "  built with Apple LLVM version 10.0.1 (clang-1001.0.46.4)\n",
      "  configuration: --prefix=/usr/local/Cellar/ffmpeg/4.1.4_2 --enable-shared --enable-pthreads --enable-version3 --enable-avresample --cc=clang --host-cflags='-I/Library/Java/JavaVirtualMachines/adoptopenjdk-12.0.1.jdk/Contents/Home/include -I/Library/Java/JavaVirtualMachines/adoptopenjdk-12.0.1.jdk/Contents/Home/include/darwin' --host-ldflags= --enable-ffplay --enable-gnutls --enable-gpl --enable-libaom --enable-libbluray --enable-libmp3lame --enable-libopus --enable-librubberband --enable-libsnappy --enable-libtesseract --enable-libtheora --enable-libvorbis --enable-libvpx --enable-libx264 --enable-libx265 --enable-libxvid --enable-lzma --enable-libfontconfig --enable-libfreetype --enable-frei0r --enable-libass --enable-libopencore-amrnb --enable-libopencore-amrwb --enable-libopenjpeg --enable-librtmp --enable-libspeex --enable-videotoolbox --disable-libjack --disable-indev=jack --enable-libaom --enable-libsoxr\n",
      "  libavutil      56. 22.100 / 56. 22.100\n",
      "  libavcodec     58. 35.100 / 58. 35.100\n",
      "  libavformat    58. 20.100 / 58. 20.100\n",
      "  libavdevice    58.  5.100 / 58.  5.100\n",
      "  libavfilter     7. 40.101 /  7. 40.101\n",
      "  libavresample   4.  0.  0 /  4.  0.  0\n",
      "  libswscale      5.  3.100 /  5.  3.100\n",
      "  libswresample   3.  3.100 /  3.  3.100\n",
      "  libpostproc    55.  3.100 / 55.  3.100\n",
      "Input #0, mov,mp4,m4a,3gp,3g2,mj2, from 'metropolis.mp4':\n",
      "  Metadata:\n",
      "    major_brand     : isom\n",
      "    minor_version   : 512\n",
      "    compatible_brands: isomiso2avc1mp41\n",
      "    encoder         : Lavf58.45.100\n",
      "  Duration: 02:28:54.25, start: 0.000000, bitrate: 1622 kb/s\n",
      "    Stream #0:0(und): Video: h264 (High) (avc1 / 0x31637661), yuv420p(tv, bt709), 1920x1080 [SAR 1:1 DAR 16:9], 1488 kb/s, 23.98 fps, 23.98 tbr, 24k tbn, 47.95 tbc (default)\n",
      "    Metadata:\n",
      "      handler_name    : ISO Media file produced by Google Inc.\n",
      "    Stream #0:1(und): Audio: aac (LC) (mp4a / 0x6134706D), 44100 Hz, stereo, fltp, 127 kb/s (default)\n",
      "    Metadata:\n",
      "      handler_name    : ISO Media file produced by Google Inc.\n",
      "Output #0, mp4, to 'metropolis/metropolis_section0.mp4':\n",
      "  Metadata:\n",
      "    major_brand     : isom\n",
      "    minor_version   : 512\n",
      "    compatible_brands: isomiso2avc1mp41\n",
      "    encoder         : Lavf58.20.100\n",
      "    Stream #0:0(und): Video: h264 (High) (avc1 / 0x31637661), yuv420p(tv, bt709), 1920x1080 [SAR 1:1 DAR 16:9], q=2-31, 1488 kb/s, 23.98 fps, 23.98 tbr, 24k tbn, 24k tbc (default)\n",
      "    Metadata:\n",
      "      handler_name    : ISO Media file produced by Google Inc.\n",
      "    Stream #0:1(und): Audio: aac (LC) (mp4a / 0x6134706D), 44100 Hz, stereo, fltp, 127 kb/s (default)\n",
      "    Metadata:\n",
      "      handler_name    : ISO Media file produced by Google Inc.\n",
      "Stream mapping:\n",
      "  Stream #0:0 -> #0:0 (copy)\n",
      "  Stream #0:1 -> #0:1 (copy)\n",
      "Press [q] to stop, [?] for help\n",
      "frame=10584 fps=0.0 q=-1.0 Lsize=   48595kB time=00:07:26.69 bitrate= 891.2kbits/s speed=6.41e+03x    \n",
      "video:41302kB audio:6980kB subtitle:0kB other streams:0kB global headers:0kB muxing overhead: 0.650461%\n",
      "ffmpeg version 4.1.4 Copyright (c) 2000-2019 the FFmpeg developers\n",
      "  built with Apple LLVM version 10.0.1 (clang-1001.0.46.4)\n",
      "  configuration: --prefix=/usr/local/Cellar/ffmpeg/4.1.4_2 --enable-shared --enable-pthreads --enable-version3 --enable-avresample --cc=clang --host-cflags='-I/Library/Java/JavaVirtualMachines/adoptopenjdk-12.0.1.jdk/Contents/Home/include -I/Library/Java/JavaVirtualMachines/adoptopenjdk-12.0.1.jdk/Contents/Home/include/darwin' --host-ldflags= --enable-ffplay --enable-gnutls --enable-gpl --enable-libaom --enable-libbluray --enable-libmp3lame --enable-libopus --enable-librubberband --enable-libsnappy --enable-libtesseract --enable-libtheora --enable-libvorbis --enable-libvpx --enable-libx264 --enable-libx265 --enable-libxvid --enable-lzma --enable-libfontconfig --enable-libfreetype --enable-frei0r --enable-libass --enable-libopencore-amrnb --enable-libopencore-amrwb --enable-libopenjpeg --enable-librtmp --enable-libspeex --enable-videotoolbox --disable-libjack --disable-indev=jack --enable-libaom --enable-libsoxr\n",
      "  libavutil      56. 22.100 / 56. 22.100\n",
      "  libavcodec     58. 35.100 / 58. 35.100\n",
      "  libavformat    58. 20.100 / 58. 20.100\n",
      "  libavdevice    58.  5.100 / 58.  5.100\n",
      "  libavfilter     7. 40.101 /  7. 40.101\n",
      "  libavresample   4.  0.  0 /  4.  0.  0\n",
      "  libswscale      5.  3.100 /  5.  3.100\n",
      "  libswresample   3.  3.100 /  3.  3.100\n",
      "  libpostproc    55.  3.100 / 55.  3.100\n",
      "Input #0, mov,mp4,m4a,3gp,3g2,mj2, from 'metropolis.mp4':\n",
      "  Metadata:\n",
      "    major_brand     : isom\n",
      "    minor_version   : 512\n",
      "    compatible_brands: isomiso2avc1mp41\n",
      "    encoder         : Lavf58.45.100\n",
      "  Duration: 02:28:54.25, start: 0.000000, bitrate: 1622 kb/s\n",
      "    Stream #0:0(und): Video: h264 (High) (avc1 / 0x31637661), yuv420p(tv, bt709), 1920x1080 [SAR 1:1 DAR 16:9], 1488 kb/s, 23.98 fps, 23.98 tbr, 24k tbn, 47.95 tbc (default)\n",
      "    Metadata:\n",
      "      handler_name    : ISO Media file produced by Google Inc.\n",
      "    Stream #0:1(und): Audio: aac (LC) (mp4a / 0x6134706D), 44100 Hz, stereo, fltp, 127 kb/s (default)\n",
      "    Metadata:\n",
      "      handler_name    : ISO Media file produced by Google Inc.\n",
      "Output #0, mp4, to 'metropolis/metropolis_section1.mp4':\n",
      "  Metadata:\n",
      "    major_brand     : isom\n",
      "    minor_version   : 512\n",
      "    compatible_brands: isomiso2avc1mp41\n",
      "    encoder         : Lavf58.20.100\n",
      "    Stream #0:0(und): Video: h264 (High) (avc1 / 0x31637661), yuv420p(tv, bt709), 1920x1080 [SAR 1:1 DAR 16:9], q=2-31, 1488 kb/s, 23.98 fps, 23.98 tbr, 24k tbn, 24k tbc (default)\n",
      "    Metadata:\n",
      "      handler_name    : ISO Media file produced by Google Inc.\n",
      "    Stream #0:1(und): Audio: aac (LC) (mp4a / 0x6134706D), 44100 Hz, stereo, fltp, 127 kb/s (default)\n",
      "    Metadata:\n",
      "      handler_name    : ISO Media file produced by Google Inc.\n",
      "Stream mapping:\n",
      "  Stream #0:0 -> #0:0 (copy)\n",
      "  Stream #0:1 -> #0:1 (copy)\n",
      "Press [q] to stop, [?] for help\n",
      "frame=10686 fps=0.0 q=-1.0 Lsize=  130029kB time=00:07:26.68 bitrate=2384.7kbits/s speed=3.17e+03x    \n",
      "video:122733kB audio:6980kB subtitle:0kB other streams:0kB global headers:0kB muxing overhead: 0.243435%\n",
      "ffmpeg version 4.1.4 Copyright (c) 2000-2019 the FFmpeg developers\n",
      "  built with Apple LLVM version 10.0.1 (clang-1001.0.46.4)\n",
      "  configuration: --prefix=/usr/local/Cellar/ffmpeg/4.1.4_2 --enable-shared --enable-pthreads --enable-version3 --enable-avresample --cc=clang --host-cflags='-I/Library/Java/JavaVirtualMachines/adoptopenjdk-12.0.1.jdk/Contents/Home/include -I/Library/Java/JavaVirtualMachines/adoptopenjdk-12.0.1.jdk/Contents/Home/include/darwin' --host-ldflags= --enable-ffplay --enable-gnutls --enable-gpl --enable-libaom --enable-libbluray --enable-libmp3lame --enable-libopus --enable-librubberband --enable-libsnappy --enable-libtesseract --enable-libtheora --enable-libvorbis --enable-libvpx --enable-libx264 --enable-libx265 --enable-libxvid --enable-lzma --enable-libfontconfig --enable-libfreetype --enable-frei0r --enable-libass --enable-libopencore-amrnb --enable-libopencore-amrwb --enable-libopenjpeg --enable-librtmp --enable-libspeex --enable-videotoolbox --disable-libjack --disable-indev=jack --enable-libaom --enable-libsoxr\n",
      "  libavutil      56. 22.100 / 56. 22.100\n",
      "  libavcodec     58. 35.100 / 58. 35.100\n",
      "  libavformat    58. 20.100 / 58. 20.100\n",
      "  libavdevice    58.  5.100 / 58.  5.100\n",
      "  libavfilter     7. 40.101 /  7. 40.101\n",
      "  libavresample   4.  0.  0 /  4.  0.  0\n",
      "  libswscale      5.  3.100 /  5.  3.100\n",
      "  libswresample   3.  3.100 /  3.  3.100\n",
      "  libpostproc    55.  3.100 / 55.  3.100\n",
      "Input #0, mov,mp4,m4a,3gp,3g2,mj2, from 'metropolis.mp4':\n",
      "  Metadata:\n",
      "    major_brand     : isom\n",
      "    minor_version   : 512\n",
      "    compatible_brands: isomiso2avc1mp41\n",
      "    encoder         : Lavf58.45.100\n",
      "  Duration: 02:28:54.25, start: 0.000000, bitrate: 1622 kb/s\n",
      "    Stream #0:0(und): Video: h264 (High) (avc1 / 0x31637661), yuv420p(tv, bt709), 1920x1080 [SAR 1:1 DAR 16:9], 1488 kb/s, 23.98 fps, 23.98 tbr, 24k tbn, 47.95 tbc (default)\n",
      "    Metadata:\n",
      "      handler_name    : ISO Media file produced by Google Inc.\n",
      "    Stream #0:1(und): Audio: aac (LC) (mp4a / 0x6134706D), 44100 Hz, stereo, fltp, 127 kb/s (default)\n",
      "    Metadata:\n",
      "      handler_name    : ISO Media file produced by Google Inc.\n",
      "Output #0, mp4, to 'metropolis/metropolis_section2.mp4':\n",
      "  Metadata:\n",
      "    major_brand     : isom\n",
      "    minor_version   : 512\n",
      "    compatible_brands: isomiso2avc1mp41\n",
      "    encoder         : Lavf58.20.100\n",
      "    Stream #0:0(und): Video: h264 (High) (avc1 / 0x31637661), yuv420p(tv, bt709), 1920x1080 [SAR 1:1 DAR 16:9], q=2-31, 1488 kb/s, 23.98 fps, 23.98 tbr, 24k tbn, 24k tbc (default)\n",
      "    Metadata:\n",
      "      handler_name    : ISO Media file produced by Google Inc.\n",
      "    Stream #0:1(und): Audio: aac (LC) (mp4a / 0x6134706D), 44100 Hz, stereo, fltp, 127 kb/s (default)\n",
      "    Metadata:\n",
      "      handler_name    : ISO Media file produced by Google Inc.\n",
      "Stream mapping:\n",
      "  Stream #0:0 -> #0:0 (copy)\n",
      "  Stream #0:1 -> #0:1 (copy)\n",
      "Press [q] to stop, [?] for help\n"
     ]
    },
    {
     "name": "stdout",
     "output_type": "stream",
     "text": [
      "\n",
      "893.4091833 1340.1137749499999\n"
     ]
    },
    {
     "name": "stderr",
     "output_type": "stream",
     "text": [
      "frame=10641 fps=0.0 q=-1.0 Lsize=  124891kB time=00:07:26.68 bitrate=2290.4kbits/s speed=2.36e+03x    \n",
      "video:117595kB audio:6980kB subtitle:0kB other streams:0kB global headers:0kB muxing overhead: 0.253133%\n",
      "ffmpeg version 4.1.4 Copyright (c) 2000-2019 the FFmpeg developers\n",
      "  built with Apple LLVM version 10.0.1 (clang-1001.0.46.4)\n",
      "  configuration: --prefix=/usr/local/Cellar/ffmpeg/4.1.4_2 --enable-shared --enable-pthreads --enable-version3 --enable-avresample --cc=clang --host-cflags='-I/Library/Java/JavaVirtualMachines/adoptopenjdk-12.0.1.jdk/Contents/Home/include -I/Library/Java/JavaVirtualMachines/adoptopenjdk-12.0.1.jdk/Contents/Home/include/darwin' --host-ldflags= --enable-ffplay --enable-gnutls --enable-gpl --enable-libaom --enable-libbluray --enable-libmp3lame --enable-libopus --enable-librubberband --enable-libsnappy --enable-libtesseract --enable-libtheora --enable-libvorbis --enable-libvpx --enable-libx264 --enable-libx265 --enable-libxvid --enable-lzma --enable-libfontconfig --enable-libfreetype --enable-frei0r --enable-libass --enable-libopencore-amrnb --enable-libopencore-amrwb --enable-libopenjpeg --enable-librtmp --enable-libspeex --enable-videotoolbox --disable-libjack --disable-indev=jack --enable-libaom --enable-libsoxr\n",
      "  libavutil      56. 22.100 / 56. 22.100\n",
      "  libavcodec     58. 35.100 / 58. 35.100\n",
      "  libavformat    58. 20.100 / 58. 20.100\n",
      "  libavdevice    58.  5.100 / 58.  5.100\n",
      "  libavfilter     7. 40.101 /  7. 40.101\n",
      "  libavresample   4.  0.  0 /  4.  0.  0\n",
      "  libswscale      5.  3.100 /  5.  3.100\n",
      "  libswresample   3.  3.100 /  3.  3.100\n",
      "  libpostproc    55.  3.100 / 55.  3.100\n",
      "Input #0, mov,mp4,m4a,3gp,3g2,mj2, from 'metropolis.mp4':\n",
      "  Metadata:\n",
      "    major_brand     : isom\n",
      "    minor_version   : 512\n",
      "    compatible_brands: isomiso2avc1mp41\n",
      "    encoder         : Lavf58.45.100\n",
      "  Duration: 02:28:54.25, start: 0.000000, bitrate: 1622 kb/s\n",
      "    Stream #0:0(und): Video: h264 (High) (avc1 / 0x31637661), yuv420p(tv, bt709), 1920x1080 [SAR 1:1 DAR 16:9], 1488 kb/s, 23.98 fps, 23.98 tbr, 24k tbn, 47.95 tbc (default)\n",
      "    Metadata:\n",
      "      handler_name    : ISO Media file produced by Google Inc.\n",
      "    Stream #0:1(und): Audio: aac (LC) (mp4a / 0x6134706D), 44100 Hz, stereo, fltp, 127 kb/s (default)\n",
      "    Metadata:\n",
      "      handler_name    : ISO Media file produced by Google Inc.\n",
      "Output #0, mp4, to 'metropolis/metropolis_section3.mp4':\n",
      "  Metadata:\n",
      "    major_brand     : isom\n",
      "    minor_version   : 512\n",
      "    compatible_brands: isomiso2avc1mp41\n",
      "    encoder         : Lavf58.20.100\n",
      "    Stream #0:0(und): Video: h264 (High) (avc1 / 0x31637661), yuv420p(tv, bt709), 1920x1080 [SAR 1:1 DAR 16:9], q=2-31, 1488 kb/s, 23.98 fps, 23.98 tbr, 24k tbn, 24k tbc (default)\n",
      "    Metadata:\n",
      "      handler_name    : ISO Media file produced by Google Inc.\n",
      "    Stream #0:1(und): Audio: aac (LC) (mp4a / 0x6134706D), 44100 Hz, stereo, fltp, 127 kb/s (default)\n",
      "    Metadata:\n",
      "      handler_name    : ISO Media file produced by Google Inc.\n",
      "Stream mapping:\n",
      "  Stream #0:0 -> #0:0 (copy)\n",
      "  Stream #0:1 -> #0:1 (copy)\n",
      "Press [q] to stop, [?] for help\n"
     ]
    },
    {
     "name": "stdout",
     "output_type": "stream",
     "text": [
      "\n",
      "1340.1137749499999 1786.8183666\n"
     ]
    },
    {
     "name": "stderr",
     "output_type": "stream",
     "text": [
      "frame=10600 fps=0.0 q=-1.0 Lsize=   64455kB time=00:07:26.68 bitrate=1182.1kbits/s speed=2.2e+03x    \n",
      "video:57164kB audio:6980kB subtitle:0kB other streams:0kB global headers:0kB muxing overhead: 0.486229%\n",
      "ffmpeg version 4.1.4 Copyright (c) 2000-2019 the FFmpeg developers\n",
      "  built with Apple LLVM version 10.0.1 (clang-1001.0.46.4)\n",
      "  configuration: --prefix=/usr/local/Cellar/ffmpeg/4.1.4_2 --enable-shared --enable-pthreads --enable-version3 --enable-avresample --cc=clang --host-cflags='-I/Library/Java/JavaVirtualMachines/adoptopenjdk-12.0.1.jdk/Contents/Home/include -I/Library/Java/JavaVirtualMachines/adoptopenjdk-12.0.1.jdk/Contents/Home/include/darwin' --host-ldflags= --enable-ffplay --enable-gnutls --enable-gpl --enable-libaom --enable-libbluray --enable-libmp3lame --enable-libopus --enable-librubberband --enable-libsnappy --enable-libtesseract --enable-libtheora --enable-libvorbis --enable-libvpx --enable-libx264 --enable-libx265 --enable-libxvid --enable-lzma --enable-libfontconfig --enable-libfreetype --enable-frei0r --enable-libass --enable-libopencore-amrnb --enable-libopencore-amrwb --enable-libopenjpeg --enable-librtmp --enable-libspeex --enable-videotoolbox --disable-libjack --disable-indev=jack --enable-libaom --enable-libsoxr\n",
      "  libavutil      56. 22.100 / 56. 22.100\n",
      "  libavcodec     58. 35.100 / 58. 35.100\n",
      "  libavformat    58. 20.100 / 58. 20.100\n",
      "  libavdevice    58.  5.100 / 58.  5.100\n",
      "  libavfilter     7. 40.101 /  7. 40.101\n",
      "  libavresample   4.  0.  0 /  4.  0.  0\n",
      "  libswscale      5.  3.100 /  5.  3.100\n",
      "  libswresample   3.  3.100 /  3.  3.100\n",
      "  libpostproc    55.  3.100 / 55.  3.100\n",
      "Input #0, mov,mp4,m4a,3gp,3g2,mj2, from 'metropolis.mp4':\n",
      "  Metadata:\n",
      "    major_brand     : isom\n",
      "    minor_version   : 512\n",
      "    compatible_brands: isomiso2avc1mp41\n",
      "    encoder         : Lavf58.45.100\n",
      "  Duration: 02:28:54.25, start: 0.000000, bitrate: 1622 kb/s\n",
      "    Stream #0:0(und): Video: h264 (High) (avc1 / 0x31637661), yuv420p(tv, bt709), 1920x1080 [SAR 1:1 DAR 16:9], 1488 kb/s, 23.98 fps, 23.98 tbr, 24k tbn, 47.95 tbc (default)\n",
      "    Metadata:\n",
      "      handler_name    : ISO Media file produced by Google Inc.\n",
      "    Stream #0:1(und): Audio: aac (LC) (mp4a / 0x6134706D), 44100 Hz, stereo, fltp, 127 kb/s (default)\n",
      "    Metadata:\n",
      "      handler_name    : ISO Media file produced by Google Inc.\n",
      "Output #0, mp4, to 'metropolis/metropolis_section4.mp4':\n",
      "  Metadata:\n",
      "    major_brand     : isom\n",
      "    minor_version   : 512\n",
      "    compatible_brands: isomiso2avc1mp41\n",
      "    encoder         : Lavf58.20.100\n",
      "    Stream #0:0(und): Video: h264 (High) (avc1 / 0x31637661), yuv420p(tv, bt709), 1920x1080 [SAR 1:1 DAR 16:9], q=2-31, 1488 kb/s, 23.98 fps, 23.98 tbr, 24k tbn, 24k tbc (default)\n",
      "    Metadata:\n",
      "      handler_name    : ISO Media file produced by Google Inc.\n",
      "    Stream #0:1(und): Audio: aac (LC) (mp4a / 0x6134706D), 44100 Hz, stereo, fltp, 127 kb/s (default)\n",
      "    Metadata:\n",
      "      handler_name    : ISO Media file produced by Google Inc.\n",
      "Stream mapping:\n",
      "  Stream #0:0 -> #0:0 (copy)\n",
      "  Stream #0:1 -> #0:1 (copy)\n",
      "Press [q] to stop, [?] for help\n"
     ]
    },
    {
     "name": "stdout",
     "output_type": "stream",
     "text": [
      "\n",
      "1786.8183666 2233.52295825\n"
     ]
    },
    {
     "name": "stderr",
     "output_type": "stream",
     "text": [
      "frame=10672 fps=0.0 q=-1.0 Lsize=   79497kB time=00:07:26.68 bitrate=1457.9kbits/s speed=1.88e+03x    \n",
      "video:72201kB audio:6980kB subtitle:0kB other streams:0kB global headers:0kB muxing overhead: 0.400200%\n",
      "ffmpeg version 4.1.4 Copyright (c) 2000-2019 the FFmpeg developers\n",
      "  built with Apple LLVM version 10.0.1 (clang-1001.0.46.4)\n",
      "  configuration: --prefix=/usr/local/Cellar/ffmpeg/4.1.4_2 --enable-shared --enable-pthreads --enable-version3 --enable-avresample --cc=clang --host-cflags='-I/Library/Java/JavaVirtualMachines/adoptopenjdk-12.0.1.jdk/Contents/Home/include -I/Library/Java/JavaVirtualMachines/adoptopenjdk-12.0.1.jdk/Contents/Home/include/darwin' --host-ldflags= --enable-ffplay --enable-gnutls --enable-gpl --enable-libaom --enable-libbluray --enable-libmp3lame --enable-libopus --enable-librubberband --enable-libsnappy --enable-libtesseract --enable-libtheora --enable-libvorbis --enable-libvpx --enable-libx264 --enable-libx265 --enable-libxvid --enable-lzma --enable-libfontconfig --enable-libfreetype --enable-frei0r --enable-libass --enable-libopencore-amrnb --enable-libopencore-amrwb --enable-libopenjpeg --enable-librtmp --enable-libspeex --enable-videotoolbox --disable-libjack --disable-indev=jack --enable-libaom --enable-libsoxr\n",
      "  libavutil      56. 22.100 / 56. 22.100\n",
      "  libavcodec     58. 35.100 / 58. 35.100\n",
      "  libavformat    58. 20.100 / 58. 20.100\n",
      "  libavdevice    58.  5.100 / 58.  5.100\n",
      "  libavfilter     7. 40.101 /  7. 40.101\n",
      "  libavresample   4.  0.  0 /  4.  0.  0\n",
      "  libswscale      5.  3.100 /  5.  3.100\n",
      "  libswresample   3.  3.100 /  3.  3.100\n",
      "  libpostproc    55.  3.100 / 55.  3.100\n",
      "Input #0, mov,mp4,m4a,3gp,3g2,mj2, from 'metropolis.mp4':\n",
      "  Metadata:\n",
      "    major_brand     : isom\n",
      "    minor_version   : 512\n",
      "    compatible_brands: isomiso2avc1mp41\n",
      "    encoder         : Lavf58.45.100\n",
      "  Duration: 02:28:54.25, start: 0.000000, bitrate: 1622 kb/s\n",
      "    Stream #0:0(und): Video: h264 (High) (avc1 / 0x31637661), yuv420p(tv, bt709), 1920x1080 [SAR 1:1 DAR 16:9], 1488 kb/s, 23.98 fps, 23.98 tbr, 24k tbn, 47.95 tbc (default)\n",
      "    Metadata:\n",
      "      handler_name    : ISO Media file produced by Google Inc.\n",
      "    Stream #0:1(und): Audio: aac (LC) (mp4a / 0x6134706D), 44100 Hz, stereo, fltp, 127 kb/s (default)\n",
      "    Metadata:\n",
      "      handler_name    : ISO Media file produced by Google Inc.\n",
      "Output #0, mp4, to 'metropolis/metropolis_section5.mp4':\n",
      "  Metadata:\n",
      "    major_brand     : isom\n",
      "    minor_version   : 512\n",
      "    compatible_brands: isomiso2avc1mp41\n",
      "    encoder         : Lavf58.20.100\n",
      "    Stream #0:0(und): Video: h264 (High) (avc1 / 0x31637661), yuv420p(tv, bt709), 1920x1080 [SAR 1:1 DAR 16:9], q=2-31, 1488 kb/s, 23.98 fps, 23.98 tbr, 24k tbn, 24k tbc (default)\n",
      "    Metadata:\n",
      "      handler_name    : ISO Media file produced by Google Inc.\n",
      "    Stream #0:1(und): Audio: aac (LC) (mp4a / 0x6134706D), 44100 Hz, stereo, fltp, 127 kb/s (default)\n",
      "    Metadata:\n",
      "      handler_name    : ISO Media file produced by Google Inc.\n",
      "Stream mapping:\n",
      "  Stream #0:0 -> #0:0 (copy)\n",
      "  Stream #0:1 -> #0:1 (copy)\n",
      "Press [q] to stop, [?] for help\n"
     ]
    },
    {
     "name": "stdout",
     "output_type": "stream",
     "text": [
      "\n",
      "2233.52295825 2680.2275499\n"
     ]
    },
    {
     "name": "stderr",
     "output_type": "stream",
     "text": [
      "frame=10672 fps=0.0 q=-1.0 Lsize=   62729kB time=00:07:26.69 bitrate=1150.4kbits/s speed=1.65e+03x    \n",
      "video:55433kB audio:6980kB subtitle:0kB other streams:0kB global headers:0kB muxing overhead: 0.505459%\n",
      "ffmpeg version 4.1.4 Copyright (c) 2000-2019 the FFmpeg developers\n",
      "  built with Apple LLVM version 10.0.1 (clang-1001.0.46.4)\n",
      "  configuration: --prefix=/usr/local/Cellar/ffmpeg/4.1.4_2 --enable-shared --enable-pthreads --enable-version3 --enable-avresample --cc=clang --host-cflags='-I/Library/Java/JavaVirtualMachines/adoptopenjdk-12.0.1.jdk/Contents/Home/include -I/Library/Java/JavaVirtualMachines/adoptopenjdk-12.0.1.jdk/Contents/Home/include/darwin' --host-ldflags= --enable-ffplay --enable-gnutls --enable-gpl --enable-libaom --enable-libbluray --enable-libmp3lame --enable-libopus --enable-librubberband --enable-libsnappy --enable-libtesseract --enable-libtheora --enable-libvorbis --enable-libvpx --enable-libx264 --enable-libx265 --enable-libxvid --enable-lzma --enable-libfontconfig --enable-libfreetype --enable-frei0r --enable-libass --enable-libopencore-amrnb --enable-libopencore-amrwb --enable-libopenjpeg --enable-librtmp --enable-libspeex --enable-videotoolbox --disable-libjack --disable-indev=jack --enable-libaom --enable-libsoxr\n",
      "  libavutil      56. 22.100 / 56. 22.100\n",
      "  libavcodec     58. 35.100 / 58. 35.100\n",
      "  libavformat    58. 20.100 / 58. 20.100\n",
      "  libavdevice    58.  5.100 / 58.  5.100\n",
      "  libavfilter     7. 40.101 /  7. 40.101\n",
      "  libavresample   4.  0.  0 /  4.  0.  0\n",
      "  libswscale      5.  3.100 /  5.  3.100\n",
      "  libswresample   3.  3.100 /  3.  3.100\n",
      "  libpostproc    55.  3.100 / 55.  3.100\n",
      "Input #0, mov,mp4,m4a,3gp,3g2,mj2, from 'metropolis.mp4':\n",
      "  Metadata:\n",
      "    major_brand     : isom\n",
      "    minor_version   : 512\n",
      "    compatible_brands: isomiso2avc1mp41\n",
      "    encoder         : Lavf58.45.100\n",
      "  Duration: 02:28:54.25, start: 0.000000, bitrate: 1622 kb/s\n",
      "    Stream #0:0(und): Video: h264 (High) (avc1 / 0x31637661), yuv420p(tv, bt709), 1920x1080 [SAR 1:1 DAR 16:9], 1488 kb/s, 23.98 fps, 23.98 tbr, 24k tbn, 47.95 tbc (default)\n",
      "    Metadata:\n",
      "      handler_name    : ISO Media file produced by Google Inc.\n",
      "    Stream #0:1(und): Audio: aac (LC) (mp4a / 0x6134706D), 44100 Hz, stereo, fltp, 127 kb/s (default)\n",
      "    Metadata:\n",
      "      handler_name    : ISO Media file produced by Google Inc.\n",
      "Output #0, mp4, to 'metropolis/metropolis_section6.mp4':\n",
      "  Metadata:\n",
      "    major_brand     : isom\n",
      "    minor_version   : 512\n",
      "    compatible_brands: isomiso2avc1mp41\n",
      "    encoder         : Lavf58.20.100\n",
      "    Stream #0:0(und): Video: h264 (High) (avc1 / 0x31637661), yuv420p(tv, bt709), 1920x1080 [SAR 1:1 DAR 16:9], q=2-31, 1488 kb/s, 23.98 fps, 23.98 tbr, 24k tbn, 24k tbc (default)\n",
      "    Metadata:\n",
      "      handler_name    : ISO Media file produced by Google Inc.\n",
      "    Stream #0:1(und): Audio: aac (LC) (mp4a / 0x6134706D), 44100 Hz, stereo, fltp, 127 kb/s (default)\n",
      "    Metadata:\n",
      "      handler_name    : ISO Media file produced by Google Inc.\n",
      "Stream mapping:\n",
      "  Stream #0:0 -> #0:0 (copy)\n",
      "  Stream #0:1 -> #0:1 (copy)\n",
      "Press [q] to stop, [?] for help\n"
     ]
    },
    {
     "name": "stdout",
     "output_type": "stream",
     "text": [
      "\n",
      "2680.2275499 3126.9321415500003\n"
     ]
    },
    {
     "name": "stderr",
     "output_type": "stream",
     "text": [
      "frame=10694 fps=0.0 q=-1.0 Lsize=   71718kB time=00:07:26.68 bitrate=1315.3kbits/s speed=1.41e+03x    \n",
      "video:64419kB audio:6980kB subtitle:0kB other streams:0kB global headers:0kB muxing overhead: 0.446386%\n",
      "ffmpeg version 4.1.4 Copyright (c) 2000-2019 the FFmpeg developers\n",
      "  built with Apple LLVM version 10.0.1 (clang-1001.0.46.4)\n",
      "  configuration: --prefix=/usr/local/Cellar/ffmpeg/4.1.4_2 --enable-shared --enable-pthreads --enable-version3 --enable-avresample --cc=clang --host-cflags='-I/Library/Java/JavaVirtualMachines/adoptopenjdk-12.0.1.jdk/Contents/Home/include -I/Library/Java/JavaVirtualMachines/adoptopenjdk-12.0.1.jdk/Contents/Home/include/darwin' --host-ldflags= --enable-ffplay --enable-gnutls --enable-gpl --enable-libaom --enable-libbluray --enable-libmp3lame --enable-libopus --enable-librubberband --enable-libsnappy --enable-libtesseract --enable-libtheora --enable-libvorbis --enable-libvpx --enable-libx264 --enable-libx265 --enable-libxvid --enable-lzma --enable-libfontconfig --enable-libfreetype --enable-frei0r --enable-libass --enable-libopencore-amrnb --enable-libopencore-amrwb --enable-libopenjpeg --enable-librtmp --enable-libspeex --enable-videotoolbox --disable-libjack --disable-indev=jack --enable-libaom --enable-libsoxr\n",
      "  libavutil      56. 22.100 / 56. 22.100\n",
      "  libavcodec     58. 35.100 / 58. 35.100\n",
      "  libavformat    58. 20.100 / 58. 20.100\n",
      "  libavdevice    58.  5.100 / 58.  5.100\n",
      "  libavfilter     7. 40.101 /  7. 40.101\n",
      "  libavresample   4.  0.  0 /  4.  0.  0\n",
      "  libswscale      5.  3.100 /  5.  3.100\n",
      "  libswresample   3.  3.100 /  3.  3.100\n",
      "  libpostproc    55.  3.100 / 55.  3.100\n",
      "Input #0, mov,mp4,m4a,3gp,3g2,mj2, from 'metropolis.mp4':\n",
      "  Metadata:\n",
      "    major_brand     : isom\n",
      "    minor_version   : 512\n",
      "    compatible_brands: isomiso2avc1mp41\n",
      "    encoder         : Lavf58.45.100\n",
      "  Duration: 02:28:54.25, start: 0.000000, bitrate: 1622 kb/s\n",
      "    Stream #0:0(und): Video: h264 (High) (avc1 / 0x31637661), yuv420p(tv, bt709), 1920x1080 [SAR 1:1 DAR 16:9], 1488 kb/s, 23.98 fps, 23.98 tbr, 24k tbn, 47.95 tbc (default)\n",
      "    Metadata:\n",
      "      handler_name    : ISO Media file produced by Google Inc.\n",
      "    Stream #0:1(und): Audio: aac (LC) (mp4a / 0x6134706D), 44100 Hz, stereo, fltp, 127 kb/s (default)\n",
      "    Metadata:\n",
      "      handler_name    : ISO Media file produced by Google Inc.\n",
      "Output #0, mp4, to 'metropolis/metropolis_section7.mp4':\n",
      "  Metadata:\n",
      "    major_brand     : isom\n",
      "    minor_version   : 512\n",
      "    compatible_brands: isomiso2avc1mp41\n",
      "    encoder         : Lavf58.20.100\n",
      "    Stream #0:0(und): Video: h264 (High) (avc1 / 0x31637661), yuv420p(tv, bt709), 1920x1080 [SAR 1:1 DAR 16:9], q=2-31, 1488 kb/s, 23.98 fps, 23.98 tbr, 24k tbn, 24k tbc (default)\n",
      "    Metadata:\n",
      "      handler_name    : ISO Media file produced by Google Inc.\n",
      "    Stream #0:1(und): Audio: aac (LC) (mp4a / 0x6134706D), 44100 Hz, stereo, fltp, 127 kb/s (default)\n",
      "    Metadata:\n",
      "      handler_name    : ISO Media file produced by Google Inc.\n",
      "Stream mapping:\n",
      "  Stream #0:0 -> #0:0 (copy)\n",
      "  Stream #0:1 -> #0:1 (copy)\n",
      "Press [q] to stop, [?] for help\n"
     ]
    },
    {
     "name": "stdout",
     "output_type": "stream",
     "text": [
      "\n",
      "3126.9321415500003 3573.6367332000004\n"
     ]
    },
    {
     "name": "stderr",
     "output_type": "stream",
     "text": [
      "frame=10707 fps=0.0 q=-1.0 Lsize=   61821kB time=00:07:26.68 bitrate=1133.8kbits/s speed=1.31e+03x    \n",
      "video:54526kB audio:6980kB subtitle:0kB other streams:0kB global headers:0kB muxing overhead: 0.513465%\n",
      "ffmpeg version 4.1.4 Copyright (c) 2000-2019 the FFmpeg developers\n",
      "  built with Apple LLVM version 10.0.1 (clang-1001.0.46.4)\n",
      "  configuration: --prefix=/usr/local/Cellar/ffmpeg/4.1.4_2 --enable-shared --enable-pthreads --enable-version3 --enable-avresample --cc=clang --host-cflags='-I/Library/Java/JavaVirtualMachines/adoptopenjdk-12.0.1.jdk/Contents/Home/include -I/Library/Java/JavaVirtualMachines/adoptopenjdk-12.0.1.jdk/Contents/Home/include/darwin' --host-ldflags= --enable-ffplay --enable-gnutls --enable-gpl --enable-libaom --enable-libbluray --enable-libmp3lame --enable-libopus --enable-librubberband --enable-libsnappy --enable-libtesseract --enable-libtheora --enable-libvorbis --enable-libvpx --enable-libx264 --enable-libx265 --enable-libxvid --enable-lzma --enable-libfontconfig --enable-libfreetype --enable-frei0r --enable-libass --enable-libopencore-amrnb --enable-libopencore-amrwb --enable-libopenjpeg --enable-librtmp --enable-libspeex --enable-videotoolbox --disable-libjack --disable-indev=jack --enable-libaom --enable-libsoxr\n",
      "  libavutil      56. 22.100 / 56. 22.100\n",
      "  libavcodec     58. 35.100 / 58. 35.100\n",
      "  libavformat    58. 20.100 / 58. 20.100\n",
      "  libavdevice    58.  5.100 / 58.  5.100\n",
      "  libavfilter     7. 40.101 /  7. 40.101\n",
      "  libavresample   4.  0.  0 /  4.  0.  0\n",
      "  libswscale      5.  3.100 /  5.  3.100\n",
      "  libswresample   3.  3.100 /  3.  3.100\n",
      "  libpostproc    55.  3.100 / 55.  3.100\n",
      "Input #0, mov,mp4,m4a,3gp,3g2,mj2, from 'metropolis.mp4':\n",
      "  Metadata:\n",
      "    major_brand     : isom\n",
      "    minor_version   : 512\n",
      "    compatible_brands: isomiso2avc1mp41\n",
      "    encoder         : Lavf58.45.100\n",
      "  Duration: 02:28:54.25, start: 0.000000, bitrate: 1622 kb/s\n",
      "    Stream #0:0(und): Video: h264 (High) (avc1 / 0x31637661), yuv420p(tv, bt709), 1920x1080 [SAR 1:1 DAR 16:9], 1488 kb/s, 23.98 fps, 23.98 tbr, 24k tbn, 47.95 tbc (default)\n",
      "    Metadata:\n",
      "      handler_name    : ISO Media file produced by Google Inc.\n",
      "    Stream #0:1(und): Audio: aac (LC) (mp4a / 0x6134706D), 44100 Hz, stereo, fltp, 127 kb/s (default)\n",
      "    Metadata:\n",
      "      handler_name    : ISO Media file produced by Google Inc.\n",
      "Output #0, mp4, to 'metropolis/metropolis_section8.mp4':\n",
      "  Metadata:\n",
      "    major_brand     : isom\n",
      "    minor_version   : 512\n",
      "    compatible_brands: isomiso2avc1mp41\n",
      "    encoder         : Lavf58.20.100\n",
      "    Stream #0:0(und): Video: h264 (High) (avc1 / 0x31637661), yuv420p(tv, bt709), 1920x1080 [SAR 1:1 DAR 16:9], q=2-31, 1488 kb/s, 23.98 fps, 23.98 tbr, 24k tbn, 24k tbc (default)\n",
      "    Metadata:\n",
      "      handler_name    : ISO Media file produced by Google Inc.\n",
      "    Stream #0:1(und): Audio: aac (LC) (mp4a / 0x6134706D), 44100 Hz, stereo, fltp, 127 kb/s (default)\n",
      "    Metadata:\n",
      "      handler_name    : ISO Media file produced by Google Inc.\n",
      "Stream mapping:\n",
      "  Stream #0:0 -> #0:0 (copy)\n",
      "  Stream #0:1 -> #0:1 (copy)\n",
      "Press [q] to stop, [?] for help\n"
     ]
    },
    {
     "name": "stdout",
     "output_type": "stream",
     "text": [
      "\n",
      "3573.6367332000004 4020.3413248500005\n"
     ]
    },
    {
     "name": "stderr",
     "output_type": "stream",
     "text": [
      "frame=10684 fps=0.0 q=-1.0 Lsize=   42427kB time=00:07:26.68 bitrate= 778.1kbits/s speed=1.22e+03x    \n",
      "video:35131kB audio:6980kB subtitle:0kB other streams:0kB global headers:0kB muxing overhead: 0.752180%\n",
      "ffmpeg version 4.1.4 Copyright (c) 2000-2019 the FFmpeg developers\n",
      "  built with Apple LLVM version 10.0.1 (clang-1001.0.46.4)\n",
      "  configuration: --prefix=/usr/local/Cellar/ffmpeg/4.1.4_2 --enable-shared --enable-pthreads --enable-version3 --enable-avresample --cc=clang --host-cflags='-I/Library/Java/JavaVirtualMachines/adoptopenjdk-12.0.1.jdk/Contents/Home/include -I/Library/Java/JavaVirtualMachines/adoptopenjdk-12.0.1.jdk/Contents/Home/include/darwin' --host-ldflags= --enable-ffplay --enable-gnutls --enable-gpl --enable-libaom --enable-libbluray --enable-libmp3lame --enable-libopus --enable-librubberband --enable-libsnappy --enable-libtesseract --enable-libtheora --enable-libvorbis --enable-libvpx --enable-libx264 --enable-libx265 --enable-libxvid --enable-lzma --enable-libfontconfig --enable-libfreetype --enable-frei0r --enable-libass --enable-libopencore-amrnb --enable-libopencore-amrwb --enable-libopenjpeg --enable-librtmp --enable-libspeex --enable-videotoolbox --disable-libjack --disable-indev=jack --enable-libaom --enable-libsoxr\n",
      "  libavutil      56. 22.100 / 56. 22.100\n",
      "  libavcodec     58. 35.100 / 58. 35.100\n",
      "  libavformat    58. 20.100 / 58. 20.100\n",
      "  libavdevice    58.  5.100 / 58.  5.100\n",
      "  libavfilter     7. 40.101 /  7. 40.101\n",
      "  libavresample   4.  0.  0 /  4.  0.  0\n",
      "  libswscale      5.  3.100 /  5.  3.100\n",
      "  libswresample   3.  3.100 /  3.  3.100\n",
      "  libpostproc    55.  3.100 / 55.  3.100\n",
      "Input #0, mov,mp4,m4a,3gp,3g2,mj2, from 'metropolis.mp4':\n",
      "  Metadata:\n",
      "    major_brand     : isom\n",
      "    minor_version   : 512\n",
      "    compatible_brands: isomiso2avc1mp41\n",
      "    encoder         : Lavf58.45.100\n",
      "  Duration: 02:28:54.25, start: 0.000000, bitrate: 1622 kb/s\n",
      "    Stream #0:0(und): Video: h264 (High) (avc1 / 0x31637661), yuv420p(tv, bt709), 1920x1080 [SAR 1:1 DAR 16:9], 1488 kb/s, 23.98 fps, 23.98 tbr, 24k tbn, 47.95 tbc (default)\n",
      "    Metadata:\n",
      "      handler_name    : ISO Media file produced by Google Inc.\n",
      "    Stream #0:1(und): Audio: aac (LC) (mp4a / 0x6134706D), 44100 Hz, stereo, fltp, 127 kb/s (default)\n",
      "    Metadata:\n",
      "      handler_name    : ISO Media file produced by Google Inc.\n",
      "Output #0, mp4, to 'metropolis/metropolis_section9.mp4':\n",
      "  Metadata:\n",
      "    major_brand     : isom\n",
      "    minor_version   : 512\n",
      "    compatible_brands: isomiso2avc1mp41\n",
      "    encoder         : Lavf58.20.100\n",
      "    Stream #0:0(und): Video: h264 (High) (avc1 / 0x31637661), yuv420p(tv, bt709), 1920x1080 [SAR 1:1 DAR 16:9], q=2-31, 1488 kb/s, 23.98 fps, 23.98 tbr, 24k tbn, 24k tbc (default)\n",
      "    Metadata:\n",
      "      handler_name    : ISO Media file produced by Google Inc.\n",
      "    Stream #0:1(und): Audio: aac (LC) (mp4a / 0x6134706D), 44100 Hz, stereo, fltp, 127 kb/s (default)\n",
      "    Metadata:\n",
      "      handler_name    : ISO Media file produced by Google Inc.\n",
      "Stream mapping:\n",
      "  Stream #0:0 -> #0:0 (copy)\n",
      "  Stream #0:1 -> #0:1 (copy)\n",
      "Press [q] to stop, [?] for help\n"
     ]
    },
    {
     "name": "stdout",
     "output_type": "stream",
     "text": [
      "\n",
      "4020.3413248500005 4467.0459165\n"
     ]
    },
    {
     "name": "stderr",
     "output_type": "stream",
     "text": [
      "frame=10689 fps=0.0 q=-1.0 Lsize=   70602kB time=00:07:26.69 bitrate=1294.8kbits/s speed=1.08e+03x    \n",
      "video:63312kB audio:6980kB subtitle:0kB other streams:0kB global headers:0kB muxing overhead: 0.441805%\n",
      "ffmpeg version 4.1.4 Copyright (c) 2000-2019 the FFmpeg developers\n",
      "  built with Apple LLVM version 10.0.1 (clang-1001.0.46.4)\n",
      "  configuration: --prefix=/usr/local/Cellar/ffmpeg/4.1.4_2 --enable-shared --enable-pthreads --enable-version3 --enable-avresample --cc=clang --host-cflags='-I/Library/Java/JavaVirtualMachines/adoptopenjdk-12.0.1.jdk/Contents/Home/include -I/Library/Java/JavaVirtualMachines/adoptopenjdk-12.0.1.jdk/Contents/Home/include/darwin' --host-ldflags= --enable-ffplay --enable-gnutls --enable-gpl --enable-libaom --enable-libbluray --enable-libmp3lame --enable-libopus --enable-librubberband --enable-libsnappy --enable-libtesseract --enable-libtheora --enable-libvorbis --enable-libvpx --enable-libx264 --enable-libx265 --enable-libxvid --enable-lzma --enable-libfontconfig --enable-libfreetype --enable-frei0r --enable-libass --enable-libopencore-amrnb --enable-libopencore-amrwb --enable-libopenjpeg --enable-librtmp --enable-libspeex --enable-videotoolbox --disable-libjack --disable-indev=jack --enable-libaom --enable-libsoxr\n",
      "  libavutil      56. 22.100 / 56. 22.100\n",
      "  libavcodec     58. 35.100 / 58. 35.100\n",
      "  libavformat    58. 20.100 / 58. 20.100\n",
      "  libavdevice    58.  5.100 / 58.  5.100\n",
      "  libavfilter     7. 40.101 /  7. 40.101\n",
      "  libavresample   4.  0.  0 /  4.  0.  0\n",
      "  libswscale      5.  3.100 /  5.  3.100\n",
      "  libswresample   3.  3.100 /  3.  3.100\n",
      "  libpostproc    55.  3.100 / 55.  3.100\n",
      "Input #0, mov,mp4,m4a,3gp,3g2,mj2, from 'metropolis.mp4':\n",
      "  Metadata:\n",
      "    major_brand     : isom\n",
      "    minor_version   : 512\n",
      "    compatible_brands: isomiso2avc1mp41\n",
      "    encoder         : Lavf58.45.100\n",
      "  Duration: 02:28:54.25, start: 0.000000, bitrate: 1622 kb/s\n",
      "    Stream #0:0(und): Video: h264 (High) (avc1 / 0x31637661), yuv420p(tv, bt709), 1920x1080 [SAR 1:1 DAR 16:9], 1488 kb/s, 23.98 fps, 23.98 tbr, 24k tbn, 47.95 tbc (default)\n",
      "    Metadata:\n",
      "      handler_name    : ISO Media file produced by Google Inc.\n",
      "    Stream #0:1(und): Audio: aac (LC) (mp4a / 0x6134706D), 44100 Hz, stereo, fltp, 127 kb/s (default)\n",
      "    Metadata:\n",
      "      handler_name    : ISO Media file produced by Google Inc.\n",
      "Output #0, mp4, to 'metropolis/metropolis_section10.mp4':\n",
      "  Metadata:\n",
      "    major_brand     : isom\n",
      "    minor_version   : 512\n",
      "    compatible_brands: isomiso2avc1mp41\n",
      "    encoder         : Lavf58.20.100\n",
      "    Stream #0:0(und): Video: h264 (High) (avc1 / 0x31637661), yuv420p(tv, bt709), 1920x1080 [SAR 1:1 DAR 16:9], q=2-31, 1488 kb/s, 23.98 fps, 23.98 tbr, 24k tbn, 24k tbc (default)\n",
      "    Metadata:\n",
      "      handler_name    : ISO Media file produced by Google Inc.\n",
      "    Stream #0:1(und): Audio: aac (LC) (mp4a / 0x6134706D), 44100 Hz, stereo, fltp, 127 kb/s (default)\n",
      "    Metadata:\n",
      "      handler_name    : ISO Media file produced by Google Inc.\n",
      "Stream mapping:\n",
      "  Stream #0:0 -> #0:0 (copy)\n",
      "  Stream #0:1 -> #0:1 (copy)\n",
      "Press [q] to stop, [?] for help\n"
     ]
    },
    {
     "name": "stdout",
     "output_type": "stream",
     "text": [
      "\n",
      "4467.0459165 4913.75050815\n"
     ]
    },
    {
     "name": "stderr",
     "output_type": "stream",
     "text": [
      "frame=10710 fps=0.0 q=-1.0 Lsize=   75143kB time=00:07:26.69 bitrate=1378.1kbits/s speed= 958x    \n",
      "video:67846kB audio:6980kB subtitle:0kB other streams:0kB global headers:0kB muxing overhead: 0.423639%\n",
      "ffmpeg version 4.1.4 Copyright (c) 2000-2019 the FFmpeg developers\n",
      "  built with Apple LLVM version 10.0.1 (clang-1001.0.46.4)\n",
      "  configuration: --prefix=/usr/local/Cellar/ffmpeg/4.1.4_2 --enable-shared --enable-pthreads --enable-version3 --enable-avresample --cc=clang --host-cflags='-I/Library/Java/JavaVirtualMachines/adoptopenjdk-12.0.1.jdk/Contents/Home/include -I/Library/Java/JavaVirtualMachines/adoptopenjdk-12.0.1.jdk/Contents/Home/include/darwin' --host-ldflags= --enable-ffplay --enable-gnutls --enable-gpl --enable-libaom --enable-libbluray --enable-libmp3lame --enable-libopus --enable-librubberband --enable-libsnappy --enable-libtesseract --enable-libtheora --enable-libvorbis --enable-libvpx --enable-libx264 --enable-libx265 --enable-libxvid --enable-lzma --enable-libfontconfig --enable-libfreetype --enable-frei0r --enable-libass --enable-libopencore-amrnb --enable-libopencore-amrwb --enable-libopenjpeg --enable-librtmp --enable-libspeex --enable-videotoolbox --disable-libjack --disable-indev=jack --enable-libaom --enable-libsoxr\n",
      "  libavutil      56. 22.100 / 56. 22.100\n",
      "  libavcodec     58. 35.100 / 58. 35.100\n",
      "  libavformat    58. 20.100 / 58. 20.100\n",
      "  libavdevice    58.  5.100 / 58.  5.100\n",
      "  libavfilter     7. 40.101 /  7. 40.101\n",
      "  libavresample   4.  0.  0 /  4.  0.  0\n",
      "  libswscale      5.  3.100 /  5.  3.100\n",
      "  libswresample   3.  3.100 /  3.  3.100\n",
      "  libpostproc    55.  3.100 / 55.  3.100\n",
      "Input #0, mov,mp4,m4a,3gp,3g2,mj2, from 'metropolis.mp4':\n",
      "  Metadata:\n",
      "    major_brand     : isom\n",
      "    minor_version   : 512\n",
      "    compatible_brands: isomiso2avc1mp41\n",
      "    encoder         : Lavf58.45.100\n",
      "  Duration: 02:28:54.25, start: 0.000000, bitrate: 1622 kb/s\n",
      "    Stream #0:0(und): Video: h264 (High) (avc1 / 0x31637661), yuv420p(tv, bt709), 1920x1080 [SAR 1:1 DAR 16:9], 1488 kb/s, 23.98 fps, 23.98 tbr, 24k tbn, 47.95 tbc (default)\n",
      "    Metadata:\n",
      "      handler_name    : ISO Media file produced by Google Inc.\n",
      "    Stream #0:1(und): Audio: aac (LC) (mp4a / 0x6134706D), 44100 Hz, stereo, fltp, 127 kb/s (default)\n",
      "    Metadata:\n",
      "      handler_name    : ISO Media file produced by Google Inc.\n",
      "Output #0, mp4, to 'metropolis/metropolis_section11.mp4':\n",
      "  Metadata:\n",
      "    major_brand     : isom\n",
      "    minor_version   : 512\n",
      "    compatible_brands: isomiso2avc1mp41\n",
      "    encoder         : Lavf58.20.100\n",
      "    Stream #0:0(und): Video: h264 (High) (avc1 / 0x31637661), yuv420p(tv, bt709), 1920x1080 [SAR 1:1 DAR 16:9], q=2-31, 1488 kb/s, 23.98 fps, 23.98 tbr, 24k tbn, 24k tbc (default)\n",
      "    Metadata:\n",
      "      handler_name    : ISO Media file produced by Google Inc.\n",
      "    Stream #0:1(und): Audio: aac (LC) (mp4a / 0x6134706D), 44100 Hz, stereo, fltp, 127 kb/s (default)\n",
      "    Metadata:\n",
      "      handler_name    : ISO Media file produced by Google Inc.\n",
      "Stream mapping:\n",
      "  Stream #0:0 -> #0:0 (copy)\n",
      "  Stream #0:1 -> #0:1 (copy)\n",
      "Press [q] to stop, [?] for help\n"
     ]
    },
    {
     "name": "stdout",
     "output_type": "stream",
     "text": [
      "\n",
      "4913.75050815 5360.4550998\n"
     ]
    },
    {
     "name": "stderr",
     "output_type": "stream",
     "text": [
      "frame=10698 fps=0.0 q=-1.0 Lsize=   70765kB time=00:07:26.69 bitrate=1297.8kbits/s speed= 871x    \n",
      "video:63468kB audio:6980kB subtitle:0kB other streams:0kB global headers:0kB muxing overhead: 0.449725%\n",
      "ffmpeg version 4.1.4 Copyright (c) 2000-2019 the FFmpeg developers\n",
      "  built with Apple LLVM version 10.0.1 (clang-1001.0.46.4)\n",
      "  configuration: --prefix=/usr/local/Cellar/ffmpeg/4.1.4_2 --enable-shared --enable-pthreads --enable-version3 --enable-avresample --cc=clang --host-cflags='-I/Library/Java/JavaVirtualMachines/adoptopenjdk-12.0.1.jdk/Contents/Home/include -I/Library/Java/JavaVirtualMachines/adoptopenjdk-12.0.1.jdk/Contents/Home/include/darwin' --host-ldflags= --enable-ffplay --enable-gnutls --enable-gpl --enable-libaom --enable-libbluray --enable-libmp3lame --enable-libopus --enable-librubberband --enable-libsnappy --enable-libtesseract --enable-libtheora --enable-libvorbis --enable-libvpx --enable-libx264 --enable-libx265 --enable-libxvid --enable-lzma --enable-libfontconfig --enable-libfreetype --enable-frei0r --enable-libass --enable-libopencore-amrnb --enable-libopencore-amrwb --enable-libopenjpeg --enable-librtmp --enable-libspeex --enable-videotoolbox --disable-libjack --disable-indev=jack --enable-libaom --enable-libsoxr\n",
      "  libavutil      56. 22.100 / 56. 22.100\n",
      "  libavcodec     58. 35.100 / 58. 35.100\n",
      "  libavformat    58. 20.100 / 58. 20.100\n",
      "  libavdevice    58.  5.100 / 58.  5.100\n",
      "  libavfilter     7. 40.101 /  7. 40.101\n",
      "  libavresample   4.  0.  0 /  4.  0.  0\n",
      "  libswscale      5.  3.100 /  5.  3.100\n",
      "  libswresample   3.  3.100 /  3.  3.100\n",
      "  libpostproc    55.  3.100 / 55.  3.100\n",
      "Input #0, mov,mp4,m4a,3gp,3g2,mj2, from 'metropolis.mp4':\n",
      "  Metadata:\n",
      "    major_brand     : isom\n",
      "    minor_version   : 512\n",
      "    compatible_brands: isomiso2avc1mp41\n",
      "    encoder         : Lavf58.45.100\n",
      "  Duration: 02:28:54.25, start: 0.000000, bitrate: 1622 kb/s\n",
      "    Stream #0:0(und): Video: h264 (High) (avc1 / 0x31637661), yuv420p(tv, bt709), 1920x1080 [SAR 1:1 DAR 16:9], 1488 kb/s, 23.98 fps, 23.98 tbr, 24k tbn, 47.95 tbc (default)\n",
      "    Metadata:\n",
      "      handler_name    : ISO Media file produced by Google Inc.\n",
      "    Stream #0:1(und): Audio: aac (LC) (mp4a / 0x6134706D), 44100 Hz, stereo, fltp, 127 kb/s (default)\n",
      "    Metadata:\n",
      "      handler_name    : ISO Media file produced by Google Inc.\n",
      "Output #0, mp4, to 'metropolis/metropolis_section12.mp4':\n",
      "  Metadata:\n",
      "    major_brand     : isom\n",
      "    minor_version   : 512\n",
      "    compatible_brands: isomiso2avc1mp41\n",
      "    encoder         : Lavf58.20.100\n",
      "    Stream #0:0(und): Video: h264 (High) (avc1 / 0x31637661), yuv420p(tv, bt709), 1920x1080 [SAR 1:1 DAR 16:9], q=2-31, 1488 kb/s, 23.98 fps, 23.98 tbr, 24k tbn, 24k tbc (default)\n",
      "    Metadata:\n",
      "      handler_name    : ISO Media file produced by Google Inc.\n",
      "    Stream #0:1(und): Audio: aac (LC) (mp4a / 0x6134706D), 44100 Hz, stereo, fltp, 127 kb/s (default)\n",
      "    Metadata:\n",
      "      handler_name    : ISO Media file produced by Google Inc.\n",
      "Stream mapping:\n",
      "  Stream #0:0 -> #0:0 (copy)\n",
      "  Stream #0:1 -> #0:1 (copy)\n",
      "Press [q] to stop, [?] for help\n"
     ]
    },
    {
     "name": "stdout",
     "output_type": "stream",
     "text": [
      "\n",
      "5360.4550998 5807.1596914500005\n"
     ]
    },
    {
     "name": "stderr",
     "output_type": "stream",
     "text": [
      "frame=10678 fps=0.0 q=-1.0 Lsize=   59895kB time=00:07:26.69 bitrate=1098.4kbits/s speed= 846x    \n",
      "video:52600kB audio:6980kB subtitle:0kB other streams:0kB global headers:0kB muxing overhead: 0.529709%\n",
      "ffmpeg version 4.1.4 Copyright (c) 2000-2019 the FFmpeg developers\n",
      "  built with Apple LLVM version 10.0.1 (clang-1001.0.46.4)\n",
      "  configuration: --prefix=/usr/local/Cellar/ffmpeg/4.1.4_2 --enable-shared --enable-pthreads --enable-version3 --enable-avresample --cc=clang --host-cflags='-I/Library/Java/JavaVirtualMachines/adoptopenjdk-12.0.1.jdk/Contents/Home/include -I/Library/Java/JavaVirtualMachines/adoptopenjdk-12.0.1.jdk/Contents/Home/include/darwin' --host-ldflags= --enable-ffplay --enable-gnutls --enable-gpl --enable-libaom --enable-libbluray --enable-libmp3lame --enable-libopus --enable-librubberband --enable-libsnappy --enable-libtesseract --enable-libtheora --enable-libvorbis --enable-libvpx --enable-libx264 --enable-libx265 --enable-libxvid --enable-lzma --enable-libfontconfig --enable-libfreetype --enable-frei0r --enable-libass --enable-libopencore-amrnb --enable-libopencore-amrwb --enable-libopenjpeg --enable-librtmp --enable-libspeex --enable-videotoolbox --disable-libjack --disable-indev=jack --enable-libaom --enable-libsoxr\n",
      "  libavutil      56. 22.100 / 56. 22.100\n",
      "  libavcodec     58. 35.100 / 58. 35.100\n",
      "  libavformat    58. 20.100 / 58. 20.100\n",
      "  libavdevice    58.  5.100 / 58.  5.100\n",
      "  libavfilter     7. 40.101 /  7. 40.101\n",
      "  libavresample   4.  0.  0 /  4.  0.  0\n",
      "  libswscale      5.  3.100 /  5.  3.100\n",
      "  libswresample   3.  3.100 /  3.  3.100\n",
      "  libpostproc    55.  3.100 / 55.  3.100\n",
      "Input #0, mov,mp4,m4a,3gp,3g2,mj2, from 'metropolis.mp4':\n",
      "  Metadata:\n",
      "    major_brand     : isom\n",
      "    minor_version   : 512\n",
      "    compatible_brands: isomiso2avc1mp41\n",
      "    encoder         : Lavf58.45.100\n",
      "  Duration: 02:28:54.25, start: 0.000000, bitrate: 1622 kb/s\n",
      "    Stream #0:0(und): Video: h264 (High) (avc1 / 0x31637661), yuv420p(tv, bt709), 1920x1080 [SAR 1:1 DAR 16:9], 1488 kb/s, 23.98 fps, 23.98 tbr, 24k tbn, 47.95 tbc (default)\n",
      "    Metadata:\n",
      "      handler_name    : ISO Media file produced by Google Inc.\n",
      "    Stream #0:1(und): Audio: aac (LC) (mp4a / 0x6134706D), 44100 Hz, stereo, fltp, 127 kb/s (default)\n",
      "    Metadata:\n",
      "      handler_name    : ISO Media file produced by Google Inc.\n",
      "Output #0, mp4, to 'metropolis/metropolis_section13.mp4':\n",
      "  Metadata:\n",
      "    major_brand     : isom\n",
      "    minor_version   : 512\n",
      "    compatible_brands: isomiso2avc1mp41\n",
      "    encoder         : Lavf58.20.100\n",
      "    Stream #0:0(und): Video: h264 (High) (avc1 / 0x31637661), yuv420p(tv, bt709), 1920x1080 [SAR 1:1 DAR 16:9], q=2-31, 1488 kb/s, 23.98 fps, 23.98 tbr, 24k tbn, 24k tbc (default)\n",
      "    Metadata:\n",
      "      handler_name    : ISO Media file produced by Google Inc.\n",
      "    Stream #0:1(und): Audio: aac (LC) (mp4a / 0x6134706D), 44100 Hz, stereo, fltp, 127 kb/s (default)\n",
      "    Metadata:\n",
      "      handler_name    : ISO Media file produced by Google Inc.\n",
      "Stream mapping:\n",
      "  Stream #0:0 -> #0:0 (copy)\n",
      "  Stream #0:1 -> #0:1 (copy)\n",
      "Press [q] to stop, [?] for help\n"
     ]
    },
    {
     "name": "stdout",
     "output_type": "stream",
     "text": [
      "\n",
      "5807.1596914500005 6253.864283100001\n"
     ]
    },
    {
     "name": "stderr",
     "output_type": "stream",
     "text": [
      "frame=10664 fps=0.0 q=-1.0 Lsize=   62728kB time=00:07:26.69 bitrate=1150.4kbits/s speed= 770x    \n",
      "video:55433kB audio:6980kB subtitle:0kB other streams:0kB global headers:0kB muxing overhead: 0.505035%\n",
      "ffmpeg version 4.1.4 Copyright (c) 2000-2019 the FFmpeg developers\n",
      "  built with Apple LLVM version 10.0.1 (clang-1001.0.46.4)\n",
      "  configuration: --prefix=/usr/local/Cellar/ffmpeg/4.1.4_2 --enable-shared --enable-pthreads --enable-version3 --enable-avresample --cc=clang --host-cflags='-I/Library/Java/JavaVirtualMachines/adoptopenjdk-12.0.1.jdk/Contents/Home/include -I/Library/Java/JavaVirtualMachines/adoptopenjdk-12.0.1.jdk/Contents/Home/include/darwin' --host-ldflags= --enable-ffplay --enable-gnutls --enable-gpl --enable-libaom --enable-libbluray --enable-libmp3lame --enable-libopus --enable-librubberband --enable-libsnappy --enable-libtesseract --enable-libtheora --enable-libvorbis --enable-libvpx --enable-libx264 --enable-libx265 --enable-libxvid --enable-lzma --enable-libfontconfig --enable-libfreetype --enable-frei0r --enable-libass --enable-libopencore-amrnb --enable-libopencore-amrwb --enable-libopenjpeg --enable-librtmp --enable-libspeex --enable-videotoolbox --disable-libjack --disable-indev=jack --enable-libaom --enable-libsoxr\n",
      "  libavutil      56. 22.100 / 56. 22.100\n",
      "  libavcodec     58. 35.100 / 58. 35.100\n",
      "  libavformat    58. 20.100 / 58. 20.100\n",
      "  libavdevice    58.  5.100 / 58.  5.100\n",
      "  libavfilter     7. 40.101 /  7. 40.101\n",
      "  libavresample   4.  0.  0 /  4.  0.  0\n",
      "  libswscale      5.  3.100 /  5.  3.100\n",
      "  libswresample   3.  3.100 /  3.  3.100\n",
      "  libpostproc    55.  3.100 / 55.  3.100\n",
      "Input #0, mov,mp4,m4a,3gp,3g2,mj2, from 'metropolis.mp4':\n",
      "  Metadata:\n",
      "    major_brand     : isom\n",
      "    minor_version   : 512\n",
      "    compatible_brands: isomiso2avc1mp41\n",
      "    encoder         : Lavf58.45.100\n",
      "  Duration: 02:28:54.25, start: 0.000000, bitrate: 1622 kb/s\n",
      "    Stream #0:0(und): Video: h264 (High) (avc1 / 0x31637661), yuv420p(tv, bt709), 1920x1080 [SAR 1:1 DAR 16:9], 1488 kb/s, 23.98 fps, 23.98 tbr, 24k tbn, 47.95 tbc (default)\n",
      "    Metadata:\n",
      "      handler_name    : ISO Media file produced by Google Inc.\n",
      "    Stream #0:1(und): Audio: aac (LC) (mp4a / 0x6134706D), 44100 Hz, stereo, fltp, 127 kb/s (default)\n",
      "    Metadata:\n",
      "      handler_name    : ISO Media file produced by Google Inc.\n",
      "Output #0, mp4, to 'metropolis/metropolis_section14.mp4':\n",
      "  Metadata:\n",
      "    major_brand     : isom\n",
      "    minor_version   : 512\n",
      "    compatible_brands: isomiso2avc1mp41\n",
      "    encoder         : Lavf58.20.100\n",
      "    Stream #0:0(und): Video: h264 (High) (avc1 / 0x31637661), yuv420p(tv, bt709), 1920x1080 [SAR 1:1 DAR 16:9], q=2-31, 1488 kb/s, 23.98 fps, 23.98 tbr, 24k tbn, 24k tbc (default)\n",
      "    Metadata:\n",
      "      handler_name    : ISO Media file produced by Google Inc.\n",
      "    Stream #0:1(und): Audio: aac (LC) (mp4a / 0x6134706D), 44100 Hz, stereo, fltp, 127 kb/s (default)\n",
      "    Metadata:\n",
      "      handler_name    : ISO Media file produced by Google Inc.\n",
      "Stream mapping:\n",
      "  Stream #0:0 -> #0:0 (copy)\n",
      "  Stream #0:1 -> #0:1 (copy)\n",
      "Press [q] to stop, [?] for help\n"
     ]
    },
    {
     "name": "stdout",
     "output_type": "stream",
     "text": [
      "\n",
      "6253.864283100001 6700.568874750001\n"
     ]
    },
    {
     "name": "stderr",
     "output_type": "stream",
     "text": [
      "frame=10686 fps=0.0 q=-1.0 Lsize=   99223kB time=00:07:26.69 bitrate=1819.7kbits/s speed= 722x    \n",
      "video:91925kB audio:6980kB subtitle:0kB other streams:0kB global headers:0kB muxing overhead: 0.322112%\n",
      "ffmpeg version 4.1.4 Copyright (c) 2000-2019 the FFmpeg developers\n",
      "  built with Apple LLVM version 10.0.1 (clang-1001.0.46.4)\n",
      "  configuration: --prefix=/usr/local/Cellar/ffmpeg/4.1.4_2 --enable-shared --enable-pthreads --enable-version3 --enable-avresample --cc=clang --host-cflags='-I/Library/Java/JavaVirtualMachines/adoptopenjdk-12.0.1.jdk/Contents/Home/include -I/Library/Java/JavaVirtualMachines/adoptopenjdk-12.0.1.jdk/Contents/Home/include/darwin' --host-ldflags= --enable-ffplay --enable-gnutls --enable-gpl --enable-libaom --enable-libbluray --enable-libmp3lame --enable-libopus --enable-librubberband --enable-libsnappy --enable-libtesseract --enable-libtheora --enable-libvorbis --enable-libvpx --enable-libx264 --enable-libx265 --enable-libxvid --enable-lzma --enable-libfontconfig --enable-libfreetype --enable-frei0r --enable-libass --enable-libopencore-amrnb --enable-libopencore-amrwb --enable-libopenjpeg --enable-librtmp --enable-libspeex --enable-videotoolbox --disable-libjack --disable-indev=jack --enable-libaom --enable-libsoxr\n",
      "  libavutil      56. 22.100 / 56. 22.100\n",
      "  libavcodec     58. 35.100 / 58. 35.100\n",
      "  libavformat    58. 20.100 / 58. 20.100\n",
      "  libavdevice    58.  5.100 / 58.  5.100\n",
      "  libavfilter     7. 40.101 /  7. 40.101\n",
      "  libavresample   4.  0.  0 /  4.  0.  0\n",
      "  libswscale      5.  3.100 /  5.  3.100\n",
      "  libswresample   3.  3.100 /  3.  3.100\n",
      "  libpostproc    55.  3.100 / 55.  3.100\n"
     ]
    },
    {
     "name": "stdout",
     "output_type": "stream",
     "text": [
      "\n",
      "6700.568874750001 7147.273466400001\n"
     ]
    },
    {
     "name": "stderr",
     "output_type": "stream",
     "text": [
      "Input #0, mov,mp4,m4a,3gp,3g2,mj2, from 'metropolis.mp4':\n",
      "  Metadata:\n",
      "    major_brand     : isom\n",
      "    minor_version   : 512\n",
      "    compatible_brands: isomiso2avc1mp41\n",
      "    encoder         : Lavf58.45.100\n",
      "  Duration: 02:28:54.25, start: 0.000000, bitrate: 1622 kb/s\n",
      "    Stream #0:0(und): Video: h264 (High) (avc1 / 0x31637661), yuv420p(tv, bt709), 1920x1080 [SAR 1:1 DAR 16:9], 1488 kb/s, 23.98 fps, 23.98 tbr, 24k tbn, 47.95 tbc (default)\n",
      "    Metadata:\n",
      "      handler_name    : ISO Media file produced by Google Inc.\n",
      "    Stream #0:1(und): Audio: aac (LC) (mp4a / 0x6134706D), 44100 Hz, stereo, fltp, 127 kb/s (default)\n",
      "    Metadata:\n",
      "      handler_name    : ISO Media file produced by Google Inc.\n",
      "Output #0, mp4, to 'metropolis/metropolis_section15.mp4':\n",
      "  Metadata:\n",
      "    major_brand     : isom\n",
      "    minor_version   : 512\n",
      "    compatible_brands: isomiso2avc1mp41\n",
      "    encoder         : Lavf58.20.100\n",
      "    Stream #0:0(und): Video: h264 (High) (avc1 / 0x31637661), yuv420p(tv, bt709), 1920x1080 [SAR 1:1 DAR 16:9], q=2-31, 1488 kb/s, 23.98 fps, 23.98 tbr, 24k tbn, 24k tbc (default)\n",
      "    Metadata:\n",
      "      handler_name    : ISO Media file produced by Google Inc.\n",
      "    Stream #0:1(und): Audio: aac (LC) (mp4a / 0x6134706D), 44100 Hz, stereo, fltp, 127 kb/s (default)\n",
      "    Metadata:\n",
      "      handler_name    : ISO Media file produced by Google Inc.\n",
      "Stream mapping:\n",
      "  Stream #0:0 -> #0:0 (copy)\n",
      "  Stream #0:1 -> #0:1 (copy)\n",
      "Press [q] to stop, [?] for help\n",
      "frame=10642 fps=0.0 q=-1.0 Lsize=  130223kB time=00:07:26.69 bitrate=2388.2kbits/s speed= 642x    \n",
      "video:122925kB audio:6980kB subtitle:0kB other streams:0kB global headers:0kB muxing overhead: 0.245043%\n"
     ]
    },
    {
     "name": "stdout",
     "output_type": "stream",
     "text": [
      "\n",
      "7147.273466400001 7593.978058050001\n"
     ]
    },
    {
     "name": "stderr",
     "output_type": "stream",
     "text": [
      "ffmpeg version 4.1.4 Copyright (c) 2000-2019 the FFmpeg developers\n",
      "  built with Apple LLVM version 10.0.1 (clang-1001.0.46.4)\n",
      "  configuration: --prefix=/usr/local/Cellar/ffmpeg/4.1.4_2 --enable-shared --enable-pthreads --enable-version3 --enable-avresample --cc=clang --host-cflags='-I/Library/Java/JavaVirtualMachines/adoptopenjdk-12.0.1.jdk/Contents/Home/include -I/Library/Java/JavaVirtualMachines/adoptopenjdk-12.0.1.jdk/Contents/Home/include/darwin' --host-ldflags= --enable-ffplay --enable-gnutls --enable-gpl --enable-libaom --enable-libbluray --enable-libmp3lame --enable-libopus --enable-librubberband --enable-libsnappy --enable-libtesseract --enable-libtheora --enable-libvorbis --enable-libvpx --enable-libx264 --enable-libx265 --enable-libxvid --enable-lzma --enable-libfontconfig --enable-libfreetype --enable-frei0r --enable-libass --enable-libopencore-amrnb --enable-libopencore-amrwb --enable-libopenjpeg --enable-librtmp --enable-libspeex --enable-videotoolbox --disable-libjack --disable-indev=jack --enable-libaom --enable-libsoxr\n",
      "  libavutil      56. 22.100 / 56. 22.100\n",
      "  libavcodec     58. 35.100 / 58. 35.100\n",
      "  libavformat    58. 20.100 / 58. 20.100\n",
      "  libavdevice    58.  5.100 / 58.  5.100\n",
      "  libavfilter     7. 40.101 /  7. 40.101\n",
      "  libavresample   4.  0.  0 /  4.  0.  0\n",
      "  libswscale      5.  3.100 /  5.  3.100\n",
      "  libswresample   3.  3.100 /  3.  3.100\n",
      "  libpostproc    55.  3.100 / 55.  3.100\n",
      "Input #0, mov,mp4,m4a,3gp,3g2,mj2, from 'metropolis.mp4':\n",
      "  Metadata:\n",
      "    major_brand     : isom\n",
      "    minor_version   : 512\n",
      "    compatible_brands: isomiso2avc1mp41\n",
      "    encoder         : Lavf58.45.100\n",
      "  Duration: 02:28:54.25, start: 0.000000, bitrate: 1622 kb/s\n",
      "    Stream #0:0(und): Video: h264 (High) (avc1 / 0x31637661), yuv420p(tv, bt709), 1920x1080 [SAR 1:1 DAR 16:9], 1488 kb/s, 23.98 fps, 23.98 tbr, 24k tbn, 47.95 tbc (default)\n",
      "    Metadata:\n",
      "      handler_name    : ISO Media file produced by Google Inc.\n",
      "    Stream #0:1(und): Audio: aac (LC) (mp4a / 0x6134706D), 44100 Hz, stereo, fltp, 127 kb/s (default)\n",
      "    Metadata:\n",
      "      handler_name    : ISO Media file produced by Google Inc.\n",
      "Output #0, mp4, to 'metropolis/metropolis_section16.mp4':\n",
      "  Metadata:\n",
      "    major_brand     : isom\n",
      "    minor_version   : 512\n",
      "    compatible_brands: isomiso2avc1mp41\n",
      "    encoder         : Lavf58.20.100\n",
      "    Stream #0:0(und): Video: h264 (High) (avc1 / 0x31637661), yuv420p(tv, bt709), 1920x1080 [SAR 1:1 DAR 16:9], q=2-31, 1488 kb/s, 23.98 fps, 23.98 tbr, 24k tbn, 24k tbc (default)\n",
      "    Metadata:\n",
      "      handler_name    : ISO Media file produced by Google Inc.\n",
      "    Stream #0:1(und): Audio: aac (LC) (mp4a / 0x6134706D), 44100 Hz, stereo, fltp, 127 kb/s (default)\n",
      "    Metadata:\n",
      "      handler_name    : ISO Media file produced by Google Inc.\n",
      "Stream mapping:\n",
      "  Stream #0:0 -> #0:0 (copy)\n",
      "  Stream #0:1 -> #0:1 (copy)\n",
      "Press [q] to stop, [?] for help\n",
      "frame=10667 fps=0.0 q=-1.0 Lsize=  165891kB time=00:07:26.69 bitrate=3042.3kbits/s speed= 561x    \n",
      "video:158591kB audio:6980kB subtitle:0kB other streams:0kB global headers:0kB muxing overhead: 0.193512%\n",
      "ffmpeg version 4.1.4 Copyright (c) 2000-2019 the FFmpeg developers\n",
      "  built with Apple LLVM version 10.0.1 (clang-1001.0.46.4)\n",
      "  configuration: --prefix=/usr/local/Cellar/ffmpeg/4.1.4_2 --enable-shared --enable-pthreads --enable-version3 --enable-avresample --cc=clang --host-cflags='-I/Library/Java/JavaVirtualMachines/adoptopenjdk-12.0.1.jdk/Contents/Home/include -I/Library/Java/JavaVirtualMachines/adoptopenjdk-12.0.1.jdk/Contents/Home/include/darwin' --host-ldflags= --enable-ffplay --enable-gnutls --enable-gpl --enable-libaom --enable-libbluray --enable-libmp3lame --enable-libopus --enable-librubberband --enable-libsnappy --enable-libtesseract --enable-libtheora --enable-libvorbis --enable-libvpx --enable-libx264 --enable-libx265 --enable-libxvid --enable-lzma --enable-libfontconfig --enable-libfreetype --enable-frei0r --enable-libass --enable-libopencore-amrnb --enable-libopencore-amrwb --enable-libopenjpeg --enable-librtmp --enable-libspeex --enable-videotoolbox --disable-libjack --disable-indev=jack --enable-libaom --enable-libsoxr\n",
      "  libavutil      56. 22.100 / 56. 22.100\n",
      "  libavcodec     58. 35.100 / 58. 35.100\n",
      "  libavformat    58. 20.100 / 58. 20.100\n",
      "  libavdevice    58.  5.100 / 58.  5.100\n",
      "  libavfilter     7. 40.101 /  7. 40.101\n",
      "  libavresample   4.  0.  0 /  4.  0.  0\n",
      "  libswscale      5.  3.100 /  5.  3.100\n",
      "  libswresample   3.  3.100 /  3.  3.100\n",
      "  libpostproc    55.  3.100 / 55.  3.100\n",
      "Input #0, mov,mp4,m4a,3gp,3g2,mj2, from 'metropolis.mp4':\n",
      "  Metadata:\n",
      "    major_brand     : isom\n",
      "    minor_version   : 512\n",
      "    compatible_brands: isomiso2avc1mp41\n",
      "    encoder         : Lavf58.45.100\n",
      "  Duration: 02:28:54.25, start: 0.000000, bitrate: 1622 kb/s\n",
      "    Stream #0:0(und): Video: h264 (High) (avc1 / 0x31637661), yuv420p(tv, bt709), 1920x1080 [SAR 1:1 DAR 16:9], 1488 kb/s, 23.98 fps, 23.98 tbr, 24k tbn, 47.95 tbc (default)\n",
      "    Metadata:\n",
      "      handler_name    : ISO Media file produced by Google Inc.\n",
      "    Stream #0:1(und): Audio: aac (LC) (mp4a / 0x6134706D), 44100 Hz, stereo, fltp, 127 kb/s (default)\n",
      "    Metadata:\n",
      "      handler_name    : ISO Media file produced by Google Inc.\n"
     ]
    },
    {
     "name": "stdout",
     "output_type": "stream",
     "text": [
      "\n",
      "7593.978058050001 8040.682649700001\n"
     ]
    },
    {
     "name": "stderr",
     "output_type": "stream",
     "text": [
      "Output #0, mp4, to 'metropolis/metropolis_section17.mp4':\n",
      "  Metadata:\n",
      "    major_brand     : isom\n",
      "    minor_version   : 512\n",
      "    compatible_brands: isomiso2avc1mp41\n",
      "    encoder         : Lavf58.20.100\n",
      "    Stream #0:0(und): Video: h264 (High) (avc1 / 0x31637661), yuv420p(tv, bt709), 1920x1080 [SAR 1:1 DAR 16:9], q=2-31, 1488 kb/s, 23.98 fps, 23.98 tbr, 24k tbn, 24k tbc (default)\n",
      "    Metadata:\n",
      "      handler_name    : ISO Media file produced by Google Inc.\n",
      "    Stream #0:1(und): Audio: aac (LC) (mp4a / 0x6134706D), 44100 Hz, stereo, fltp, 127 kb/s (default)\n",
      "    Metadata:\n",
      "      handler_name    : ISO Media file produced by Google Inc.\n",
      "Stream mapping:\n",
      "  Stream #0:0 -> #0:0 (copy)\n",
      "  Stream #0:1 -> #0:1 (copy)\n",
      "Press [q] to stop, [?] for help\n",
      "frame=10689 fps=0.0 q=-1.0 Lsize=  116525kB time=00:07:26.69 bitrate=2137.0kbits/s speed= 569x    \n",
      "video:109227kB audio:6980kB subtitle:0kB other streams:0kB global headers:0kB muxing overhead: 0.273837%\n",
      "ffmpeg version 4.1.4 Copyright (c) 2000-2019 the FFmpeg developers\n",
      "  built with Apple LLVM version 10.0.1 (clang-1001.0.46.4)\n",
      "  configuration: --prefix=/usr/local/Cellar/ffmpeg/4.1.4_2 --enable-shared --enable-pthreads --enable-version3 --enable-avresample --cc=clang --host-cflags='-I/Library/Java/JavaVirtualMachines/adoptopenjdk-12.0.1.jdk/Contents/Home/include -I/Library/Java/JavaVirtualMachines/adoptopenjdk-12.0.1.jdk/Contents/Home/include/darwin' --host-ldflags= --enable-ffplay --enable-gnutls --enable-gpl --enable-libaom --enable-libbluray --enable-libmp3lame --enable-libopus --enable-librubberband --enable-libsnappy --enable-libtesseract --enable-libtheora --enable-libvorbis --enable-libvpx --enable-libx264 --enable-libx265 --enable-libxvid --enable-lzma --enable-libfontconfig --enable-libfreetype --enable-frei0r --enable-libass --enable-libopencore-amrnb --enable-libopencore-amrwb --enable-libopenjpeg --enable-librtmp --enable-libspeex --enable-videotoolbox --disable-libjack --disable-indev=jack --enable-libaom --enable-libsoxr\n",
      "  libavutil      56. 22.100 / 56. 22.100\n",
      "  libavcodec     58. 35.100 / 58. 35.100\n",
      "  libavformat    58. 20.100 / 58. 20.100\n",
      "  libavdevice    58.  5.100 / 58.  5.100\n",
      "  libavfilter     7. 40.101 /  7. 40.101\n",
      "  libavresample   4.  0.  0 /  4.  0.  0\n",
      "  libswscale      5.  3.100 /  5.  3.100\n",
      "  libswresample   3.  3.100 /  3.  3.100\n",
      "  libpostproc    55.  3.100 / 55.  3.100\n",
      "Input #0, mov,mp4,m4a,3gp,3g2,mj2, from 'metropolis.mp4':\n",
      "  Metadata:\n",
      "    major_brand     : isom\n",
      "    minor_version   : 512\n",
      "    compatible_brands: isomiso2avc1mp41\n",
      "    encoder         : Lavf58.45.100\n",
      "  Duration: 02:28:54.25, start: 0.000000, bitrate: 1622 kb/s\n",
      "    Stream #0:0(und): Video: h264 (High) (avc1 / 0x31637661), yuv420p(tv, bt709), 1920x1080 [SAR 1:1 DAR 16:9], 1488 kb/s, 23.98 fps, 23.98 tbr, 24k tbn, 47.95 tbc (default)\n",
      "    Metadata:\n",
      "      handler_name    : ISO Media file produced by Google Inc.\n",
      "    Stream #0:1(und): Audio: aac (LC) (mp4a / 0x6134706D), 44100 Hz, stereo, fltp, 127 kb/s (default)\n",
      "    Metadata:\n",
      "      handler_name    : ISO Media file produced by Google Inc.\n",
      "Output #0, mp4, to 'metropolis/metropolis_section18.mp4':\n",
      "  Metadata:\n",
      "    major_brand     : isom\n",
      "    minor_version   : 512\n",
      "    compatible_brands: isomiso2avc1mp41\n",
      "    encoder         : Lavf58.20.100\n",
      "    Stream #0:0(und): Video: h264 (High) (avc1 / 0x31637661), yuv420p(tv, bt709), 1920x1080 [SAR 1:1 DAR 16:9], q=2-31, 1488 kb/s, 23.98 fps, 23.98 tbr, 24k tbn, 24k tbc (default)\n",
      "    Metadata:\n",
      "      handler_name    : ISO Media file produced by Google Inc.\n",
      "    Stream #0:1(und): Audio: aac (LC) (mp4a / 0x6134706D), 44100 Hz, stereo, fltp, 127 kb/s (default)\n",
      "    Metadata:\n",
      "      handler_name    : ISO Media file produced by Google Inc.\n",
      "Stream mapping:\n",
      "  Stream #0:0 -> #0:0 (copy)\n",
      "  Stream #0:1 -> #0:1 (copy)\n",
      "Press [q] to stop, [?] for help\n"
     ]
    },
    {
     "name": "stdout",
     "output_type": "stream",
     "text": [
      "\n",
      "8040.682649700001 8487.387241350001\n"
     ]
    },
    {
     "name": "stderr",
     "output_type": "stream",
     "text": [
      "frame=10695 fps=0.0 q=-1.0 Lsize=  163238kB time=00:07:26.69 bitrate=2993.6kbits/s speed= 532x    \n",
      "video:155936kB audio:6980kB subtitle:0kB other streams:0kB global headers:0kB muxing overhead: 0.197627%\n",
      "ffmpeg version 4.1.4 Copyright (c) 2000-2019 the FFmpeg developers\n",
      "  built with Apple LLVM version 10.0.1 (clang-1001.0.46.4)\n",
      "  configuration: --prefix=/usr/local/Cellar/ffmpeg/4.1.4_2 --enable-shared --enable-pthreads --enable-version3 --enable-avresample --cc=clang --host-cflags='-I/Library/Java/JavaVirtualMachines/adoptopenjdk-12.0.1.jdk/Contents/Home/include -I/Library/Java/JavaVirtualMachines/adoptopenjdk-12.0.1.jdk/Contents/Home/include/darwin' --host-ldflags= --enable-ffplay --enable-gnutls --enable-gpl --enable-libaom --enable-libbluray --enable-libmp3lame --enable-libopus --enable-librubberband --enable-libsnappy --enable-libtesseract --enable-libtheora --enable-libvorbis --enable-libvpx --enable-libx264 --enable-libx265 --enable-libxvid --enable-lzma --enable-libfontconfig --enable-libfreetype --enable-frei0r --enable-libass --enable-libopencore-amrnb --enable-libopencore-amrwb --enable-libopenjpeg --enable-librtmp --enable-libspeex --enable-videotoolbox --disable-libjack --disable-indev=jack --enable-libaom --enable-libsoxr\n",
      "  libavutil      56. 22.100 / 56. 22.100\n",
      "  libavcodec     58. 35.100 / 58. 35.100\n",
      "  libavformat    58. 20.100 / 58. 20.100\n",
      "  libavdevice    58.  5.100 / 58.  5.100\n",
      "  libavfilter     7. 40.101 /  7. 40.101\n",
      "  libavresample   4.  0.  0 /  4.  0.  0\n",
      "  libswscale      5.  3.100 /  5.  3.100\n",
      "  libswresample   3.  3.100 /  3.  3.100\n",
      "  libpostproc    55.  3.100 / 55.  3.100\n",
      "Input #0, mov,mp4,m4a,3gp,3g2,mj2, from 'metropolis.mp4':\n",
      "  Metadata:\n",
      "    major_brand     : isom\n",
      "    minor_version   : 512\n",
      "    compatible_brands: isomiso2avc1mp41\n",
      "    encoder         : Lavf58.45.100\n",
      "  Duration: 02:28:54.25, start: 0.000000, bitrate: 1622 kb/s\n",
      "    Stream #0:0(und): Video: h264 (High) (avc1 / 0x31637661), yuv420p(tv, bt709), 1920x1080 [SAR 1:1 DAR 16:9], 1488 kb/s, 23.98 fps, 23.98 tbr, 24k tbn, 47.95 tbc (default)\n",
      "    Metadata:\n",
      "      handler_name    : ISO Media file produced by Google Inc.\n",
      "    Stream #0:1(und): Audio: aac (LC) (mp4a / 0x6134706D), 44100 Hz, stereo, fltp, 127 kb/s (default)\n",
      "    Metadata:\n",
      "      handler_name    : ISO Media file produced by Google Inc.\n",
      "Output #0, mp4, to 'metropolis/metropolis_section19.mp4':\n",
      "  Metadata:\n",
      "    major_brand     : isom\n",
      "    minor_version   : 512\n",
      "    compatible_brands: isomiso2avc1mp41\n",
      "    encoder         : Lavf58.20.100\n",
      "    Stream #0:0(und): Video: h264 (High) (avc1 / 0x31637661), yuv420p(tv, bt709), 1920x1080 [SAR 1:1 DAR 16:9], q=2-31, 1488 kb/s, 23.98 fps, 23.98 tbr, 24k tbn, 24k tbc (default)\n",
      "    Metadata:\n",
      "      handler_name    : ISO Media file produced by Google Inc.\n",
      "    Stream #0:1(und): Audio: aac (LC) (mp4a / 0x6134706D), 44100 Hz, stereo, fltp, 127 kb/s (default)\n",
      "    Metadata:\n",
      "      handler_name    : ISO Media file produced by Google Inc.\n",
      "Stream mapping:\n",
      "  Stream #0:0 -> #0:0 (copy)\n",
      "  Stream #0:1 -> #0:1 (copy)\n",
      "Press [q] to stop, [?] for help\n"
     ]
    },
    {
     "name": "stdout",
     "output_type": "stream",
     "text": [
      "\n",
      "8487.387241350001 8934.091833\n"
     ]
    },
    {
     "name": "stderr",
     "output_type": "stream",
     "text": [
      "frame=    0 fps=0.0 q=-1.0 size=       0kB time=00:00:00.00 bitrate=N/A speed=   0x    \r"
     ]
    },
    {
     "name": "stdout",
     "output_type": "stream",
     "text": [
      "\n"
     ]
    },
    {
     "name": "stderr",
     "output_type": "stream",
     "text": [
      "frame=10700 fps=0.0 q=-1.0 Lsize=   63893kB time=00:07:26.69 bitrate=1171.7kbits/s speed= 553x    \n",
      "video:56598kB audio:6980kB subtitle:0kB other streams:0kB global headers:0kB muxing overhead: 0.494984%\n"
     ]
    }
   ],
   "source": [
    "slice_video(\"metropolis.mp4\")"
   ]
  }
 ],
 "metadata": {
  "kernelspec": {
   "display_name": "Python 3",
   "language": "python",
   "name": "python3"
  },
  "language_info": {
   "codemirror_mode": {
    "name": "ipython",
    "version": 3
   },
   "file_extension": ".py",
   "mimetype": "text/x-python",
   "name": "python",
   "nbconvert_exporter": "python",
   "pygments_lexer": "ipython3",
   "version": "3.7.3"
  }
 },
 "nbformat": 4,
 "nbformat_minor": 2
}
